# xmcd
#
# Track frame offsets:
#	150
#	19544
#	33484
#	43061
#	52525
#	62145
#	73804
#	86864
#	95621
#	109070
#
# Disc length: 1645 seconds
#
# Revision: 0
# Processed by: cddbd v1.4PL0 Copyright (c) Steve Scherf et al.
# Submitted via: EasyCDDAExtractor 4.5.0.2
#
DISCID=81066b0a
DTITLE=Boxcar Willie - Winds of Yesterday
DYEAR=1900
DGENRE=Country
TTITLE0=Winds Of Yesterday
TTITLE1=Rose
TTITLE2=Hello Self
TTITLE3=Lying Time Again
TTITLE4=Honky Tonk Cowboy
TTITLE5=Youth Of Yesterday
TTITLE6=I Can Handle It
TTITLE7=Real True Lovin' Man
TTITLE8=Who
TTITLE9=Heartache Blues
EXTD=
EXTT0=
EXTT1=
EXTT2=
EXTT3=
EXTT4=
EXTT5=
EXTT6=
EXTT7=
EXTT8=
EXTT9=
PLAYORDER=
